<svg xmlns="http://www.w3.org/2000/svg" viewBox="0 0 291.21 279.38"><defs></defs><g id="Layer_2" data-name="Layer 2"><g id="Layer_1-2" data-name="Layer 1"><path height="current" width="current" fill="current" stroke="current" class="cls-1" d="M291.19,114.7a18.28,18.28,0,0,1-.26,2.76c-.06.35-.42.64-.65,1l-.09.68-1.47,3.37a.21.21,0,0,1,0,.17l0,.24c-.22.4-.44.81-.65,1.22a.39.39,0,0,1,0,.18,40.39,40.39,0,0,1-2.09,3.47,24,24,0,0,1-2.33,2.4l-.39.26-.75.71-.67.67L280.51,133l-.22.21-.48.5a.53.53,0,0,1-.17.08h0a3.05,3.05,0,0,0-.13.32,7.34,7.34,0,0,1-3.17,2.92h0L270,143.28l-.6.44-1.29,1.38-.21.21a1.51,1.51,0,0,0-.58.15,1.51,1.51,0,0,1,.58-.15c-.91,1-1.79,2-2.73,2.93q-2.55,2.59-5.16,5.13c-1.14,1.09-2.36,2.09-3.49,3.19-1.5,1.48-2.94,3-4.42,4.51-.89.9-1.78,1.8-2.69,2.68-1.17,1.13-2.36,2.23-3.54,3.36l-8.59,8.19c-1.43,1.36-2.93,2.65-4.26,4.09a2.72,2.72,0,0,0-.44,1.94c.27,2.15.71,4.29,1,6.43s.64,4.28,1,6.42c0,.23,0,.46,0,.7.31,1.63.61,3.27.92,4.91,0,.23,0,.46,0,.69.3,1.56.59,3.12.88,4.68.82,4.85,1.61,9.71,2.45,14.56,1.12,6.49,2.29,13,3.43,19.46.6,3.44,1.14,6.89,1.75,10.32a29.64,29.64,0,0,1,0,10.87,22.64,22.64,0,0,1-4.28,9.18,23.64,23.64,0,0,1-12.33,8.7c-.41.13-.83.19-1.25.29l-.27,0-.36,0-2.18.43-2.82.12-.77-.06-1.77-.05a8,8,0,0,1-1.9-.07c-1.68-.45-3.33-1-5-1.55a8,8,0,0,1-1.21-.34,3.75,3.75,0,0,1-.79-.66l-.7-.24-.74-.43-1.34-.58-.53-.35-.4-.16c-.85-.38-1.71-.72-2.54-1.14-1.76-.9-3.51-1.81-5.24-2.77-1.12-.62-2.18-1.34-3.27-2l-.4-.11c-1.5-.73-3-1.43-4.5-2.21a21.17,21.17,0,0,1-2.12-1.42c-2.18-1.1-4.36-2.2-6.54-3.32-3.6-1.86-7.22-3.71-10.8-5.61-2.43-1.28-4.8-2.68-7.23-4-3-1.59-6.05-3.11-9.06-4.68-2.38-1.24-4.78-2.45-7.08-3.82-1.38-.83-2.31.06-3.31.58-4.18,2.13-8.32,4.34-12.47,6.53-2.88,1.52-5.74,3.09-8.62,4.6-2.72,1.41-5.48,2.75-8.19,4.17-3.12,1.64-6.2,3.36-9.32,5-2.8,1.48-5.65,2.88-8.46,4.36-4.7,2.47-9.37,5-14.11,7.43a23.67,23.67,0,0,1-8.81,2.79c-.1.1-.21.3-.31.29q-3.44-.27-6.89-.59s-.09-.11-.13-.18l-1.57-.16-1-.33-.41-.06s0,.09-.07.08c-1.57-.4-3.19-.67-4.41-1.89-.85-.64-2.11-.72-2.58-1.87a21.62,21.62,0,0,1-7.39-8.9c-2.75-5.81-2.5-11.84-1.4-18,.69-3.8,1.27-7.62,1.9-11.44.15-.87.33-1.74.49-2.61l.29-.83c0-.43.09-.85.13-1.28.25-1.33.49-2.66.73-4,0-.15,0-.31,0-.46.15-1.18.25-2.36.44-3.53q.7-4.4,1.47-8.78a5.84,5.84,0,0,1,.47-1.14l.18-1.28c.15-.78.29-1.57.43-2.35.06-.32.11-.64.16-1,.1-.61.19-1.23.29-1.85,0-.15,0-.3,0-.45.11-.5.23-1,.34-1.5l0-.39c.23-1.89.42-3.79.7-5.68a13.54,13.54,0,0,1,.66-2.11l-.24,2.23.24-2.23,0-.39.9-5c0-.13,0-.25,0-.38.14-1.48.22-3,.46-4.42.19-1.15.59-2.26.89-3.39,0-.2,0-.4,0-.6a2.79,2.79,0,0,1,0-.86,2.19,2.19,0,0,0-1-2.81,14.12,14.12,0,0,1-1.58-1.52c-2.78-2.77-5.54-5.57-8.35-8.3-2.62-2.55-5.32-5-8-7.53q-7-6.75-13.95-13.54c-2.84-2.79-5.6-5.66-8.39-8.49-.59-.6-1.15-1.22-1.73-1.84h0l-.26-.19h0c-.85-.78-1.68-1.58-2.55-2.33a6.45,6.45,0,0,0-1.16-.59l-.16-.89a.56.56,0,0,1-.09-.17L10,132.51l-.61-.57C8.2,130.77,7,129.59,5.8,128.43c-2.48-2.38-3.87-5.44-5-8.56A19.07,19.07,0,0,1,0,114.72c-.1-1.4,0-2.81,0-4.23,0,.15.06.3.1.45,0-.15-.07-.3-.1-.45s0-.45,0-.67a8.73,8.73,0,0,1,1.22-5l.12-.6a38.82,38.82,0,0,1,1.75-4,28.94,28.94,0,0,1,3.08-4.56,21,21,0,0,1,3.92-3.48,17.7,17.7,0,0,1,6.59-3,7.2,7.2,0,0,1,1.23,0l.39,0a8.93,8.93,0,0,1,1.72-.63c1.79-.27,3.59-.44,5.38-.65l.45,0a5.73,5.73,0,0,1,4-.53l.63,0c1.25-.29,2.5-.61,3.76-.84a15.34,15.34,0,0,1,1.92-.08l.84,0a13.06,13.06,0,0,1,1.48-.42c1-.15,2-.25,3-.38l.48,0,.93-.07.38,0c.42-.47.85-.87,1.48-.32l1,0L51,84.17l.44,0,.93-.07a.37.37,0,0,1,.18,0,14.56,14.56,0,0,1,1.93-.54c4-.57,7.9-1.09,11.85-1.62a7.21,7.21,0,0,1,1,0l.91-.08c1.71-.88,3.59-.65,5.4-.86l1.14-.11c2-.36,4.08-.78,6.13-1.09,3.09-.47,6.18-.93,9.28-1.28,1.48-.17,2-1.16,2.59-2.29a7.08,7.08,0,0,1,.67-1l.09-.42c.05-.09.09-.19.14-.28a.26.26,0,0,1,.09-.17c.27-.63.54-1.27.82-1.89.63-1.35,1.26-2.7,1.92-4a5.37,5.37,0,0,1,.72-.87l.27-.69c.41-1,.77-2,1.23-2.94,1.07-2.24,2.17-4.46,3.26-6.68q2.17-4.39,4.36-8.77s.13-.07.2-.1h0l.22-.27a.38.38,0,0,1,.08-.17c.26-.67.46-1.37.78-2,.86-1.7,1.77-3.37,2.66-5.05l.19-.24c.1-.06.21-.1.31-.15-.1.05-.21.09-.31.15.3-.75.57-1.5.9-2.23.65-1.42,1.33-2.83,2-4.24a4.92,4.92,0,0,1,.61-.79.25.25,0,0,1,.08-.16l1.8-3.55h0c.88-2,1.73-3.95,2.64-5.9,1.09-2.34,2.15-4.71,3.37-7a80.18,80.18,0,0,1,4.79-8.3,18.06,18.06,0,0,1,5.88-4.89A24.08,24.08,0,0,1,146.2,0a51,51,0,0,1,6,.89c.2,0,.38.22.56.34l.41.05,4,1.83h0a6.09,6.09,0,0,1,3.73,2.35h0A8.71,8.71,0,0,1,163,7a64.55,64.55,0,0,1,4.43,6.36c1.16,2,1.95,4.16,3,6.22.73,1.48,1.58,2.9,2.33,4.38.47.91.81,1.88,1.27,2.79.87,1.76,1.81,3.48,2.67,5.24,1,2,1.86,4,2.83,6,1.28,2.64,2.61,5.25,3.91,7.87s2.43,5,3.65,7.48c1.09,2.23,2.21,4.44,3.29,6.66a9.61,9.61,0,0,1,.44,1.41h0c.83.27.93.93.91,1.66a.24.24,0,0,1,.07.16c.3.64.59,1.29.89,1.93a.35.35,0,0,1,0,.17c.34.54.74,1.06,1,1.62,1.53,3.08,3,6.17,4.54,9.25a3.83,3.83,0,0,0,3.62,2.4,67.85,67.85,0,0,1,7.47,1q2.69.38,5.36.83a4.25,4.25,0,0,1,.93.36l1.3.11,7.76,1.06c2.1.28,4.21.51,6.31.83,1.56.24,3.09.58,4.64.88l.45.07c2.29.25,4.59.45,6.87.77,2,.28,4,.7,6,1.06l.7,0c.46.12.92.26,1.38.39-.46-.13-.92-.27-1.38-.39,1.56.19,3.14.35,4.7.59,1,.16,2.07.45,3.1.68l.63,0,2.42.43,1.53.15c1.81.19,3.62.34,5.42.59a24.9,24.9,0,0,1,2.64.67l.37,0a27.62,27.62,0,0,1,4.75.71,22.31,22.31,0,0,1,5.2,2.46,30.67,30.67,0,0,1,3.79,3.44.25.25,0,0,1,.08.18l1,1.16.23.23c1,1.38,2,2.71,2.87,4.15C290.84,105.24,291.3,109.92,291.19,114.7Z"/></g></g></svg>
